<svg xmlns="http://www.w3.org/2000/svg" viewBox="0 0 257.77 179.59"><defs><style>.cls-1{fill:#414042;}.cls-2{fill:#6d6e71;}.cls-3{fill:#14b1e7;}.cls-4{fill:#0072bc;}</style></defs><g id="Layer_2" data-name="Layer 2"><g id="Logo"><path class="cls-1" d="M165.59,88.36V98.77a44.58,44.58,0,0,1,5.25,18,12.74,12.74,0,0,1-13.09,0,44.63,44.63,0,0,1,5.25-18V88.91l-27.63,5.84a31.31,31.31,0,0,1-13,0L76.62,85.08v30.74c0,9.08,23.4,20.55,52.26,20.55h0c28.87,0,52.27-11.47,52.27-20.55V85.08Z"/><path class="cls-2" d="M210.31,70.9l-75.73-16a27.78,27.78,0,0,0-11.39,0l-75.73,16a2.08,2.08,0,0,0,0,4.08l75.73,16a27.67,27.67,0,0,0,11.39,0l24.71-5.22L128.94,71.56a1.29,1.29,0,1,1,1.1-2.34L163.5,84.88,210.31,75a2.09,2.09,0,0,0,0-4.08Z"/><polygon class="cls-3" points="27.98 85.12 76 0 50.66 0 12.67 67.33 27.98 85.12"/><polygon class="cls-4" points="76 179.59 12.67 67.33 0 89.79 50.66 179.59 76 179.59"/><polygon class="cls-3" points="229.79 94.47 181.76 179.59 207.11 179.59 245.09 112.26 229.79 94.47"/><polygon class="cls-4" points="181.76 0 245.09 112.26 257.77 89.79 207.11 0 181.76 0"/></g></g></svg>