<svg xmlns="http://www.w3.org/2000/svg" viewBox="0 0 255.32 177.88"><defs><style>.cls-1{fill:#fff;}</style></defs><g id="Layer_2" data-name="Layer 2"><g id="Logo"><path class="cls-1" d="M164,87.53v10.3a44.27,44.27,0,0,1,5.2,17.82,12.64,12.64,0,0,1-13,0,44.16,44.16,0,0,1,5.2-17.83V88.07l-27.36,5.78a31.19,31.19,0,0,1-12.86,0L75.89,84.27v30.45c0,9,23.18,20.35,51.77,20.35h0c28.59,0,51.77-11.36,51.77-20.35V84.27Z"/><path class="cls-1" d="M208.31,70.22l-75-15.85a27.25,27.25,0,0,0-11.28,0L47,70.22a2.07,2.07,0,0,0,0,4l75,15.85a27.14,27.14,0,0,0,11.28,0L157.78,85,127.72,70.88a1.28,1.28,0,1,1,1.08-2.32l33.14,15.51,46.37-9.8a2.07,2.07,0,0,0,0-4Z"/><polygon class="cls-1" points="27.71 84.31 75.28 0 50.18 0 12.55 66.69 27.71 84.31"/><polygon class="cls-1" points="75.28 177.88 12.55 66.69 0 88.94 50.18 177.88 75.28 177.88"/><polygon class="cls-1" points="227.6 93.57 180.04 177.88 205.14 177.88 242.77 111.19 227.6 93.57"/><polygon class="cls-1" points="180.04 0 242.77 111.19 255.32 88.94 205.14 0 180.04 0"/></g></g></svg>